HIERARCHY
ROOT Hips
{
	OFFSET 0.00000 0.00000 0.00000
	CHANNELS 6 Xposition Yposition Zposition Zrotation Yrotation Xrotation 
	JOINT LHipJoint
	{
		OFFSET 0 0 0
		CHANNELS 3 Zrotation Yrotation Xrotation
		JOINT LeftUpLeg
		{
			OFFSET 1.41496 -1.84582 0.78394
			CHANNELS 3 Zrotation Yrotation Xrotation
			JOINT LeftLeg
			{
				OFFSET 2.58040 -7.08960 0.00000
				CHANNELS 3 Zrotation Yrotation Xrotation
				JOINT LeftFoot
				{
					OFFSET 2.64719 -7.27309 0.00000
					CHANNELS 3 Zrotation Yrotation Xrotation
					JOINT LeftToeBase
					{
						OFFSET 0.20718 -0.56921 2.20259
						CHANNELS 3 Zrotation Yrotation Xrotation
						End Site
						{
							OFFSET 0.00000 -0.00000 1.14243
						}
					}
				}
			}
		}
	}
	JOINT RHipJoint
	{
		OFFSET 0 0 0
		CHANNELS 3 Zrotation Yrotation Xrotation
		JOINT RightUpLeg
		{
			OFFSET -1.40551 -1.84582 0.78394
			CHANNELS 3 Zrotation Yrotation Xrotation
			JOINT RightLeg
			{
				OFFSET -2.56572 -7.04926 0.00000
				CHANNELS 3 Zrotation Yrotation Xrotation
				JOINT RightFoot
				{
					OFFSET -2.57974 -7.08778 0.00000
					CHANNELS 3 Zrotation Yrotation Xrotation
					JOINT RightToeBase
					{
						OFFSET -0.26704 -0.73369 2.20815
						CHANNELS 3 Zrotation Yrotation Xrotation
						End Site
						{
							OFFSET -0.00000 -0.00000 1.16246
						}
					}
				}
			}
		}
	}
	JOINT LowerBack
	{
		OFFSET 0 0 0
		CHANNELS 3 Zrotation Yrotation Xrotation
		JOINT Spine
		{
			OFFSET -0.04690 2.05196 -0.07017
			CHANNELS 3 Zrotation Yrotation Xrotation
			JOINT Spine1
			{
				OFFSET 0.04085 2.05260 0.00800
				CHANNELS 3 Zrotation Yrotation Xrotation
				JOINT Neck
				{
					OFFSET 0 0 0
					CHANNELS 3 Zrotation Yrotation Xrotation
					JOINT Neck1
					{
						OFFSET -0.03582 1.80995 0.19301
						CHANNELS 3 Zrotation Yrotation Xrotation
						JOINT Head
						{
							OFFSET 0.00952 1.80195 -0.36389
							CHANNELS 3 Zrotation Yrotation Xrotation
							End Site
							{
								OFFSET 0.00392 1.85062 -0.14494
							}
						}
					}
				}
				JOINT LeftShoulder
				{
					OFFSET 0 0 0
					CHANNELS 3 Zrotation Yrotation Xrotation
					JOINT LeftArm
					{
						OFFSET 3.55224 1.39726 -0.13667
						CHANNELS 3 Zrotation Yrotation Xrotation
						JOINT LeftForeArm
						{
							OFFSET 5.14507 -0.00000 -0.00000
							CHANNELS 3 Zrotation Yrotation Xrotation
							JOINT LeftHand
							{
								OFFSET 3.50646 -0.00000 0.00000
								CHANNELS 3 Zrotation Yrotation Xrotation
								JOINT LeftFingerBase
								{
									OFFSET 0 0 0
									CHANNELS 3 Zrotation Yrotation Xrotation
									JOINT LeftHandIndex1
									{
										OFFSET 0.62997 -0.00000 0.00000
										CHANNELS 3 Zrotation Yrotation Xrotation
										End Site
										{
											OFFSET 0.50790 -0.00000 0.00000
										}
									}
								}
								JOINT LThumb
								{
									OFFSET 0 0 0
									CHANNELS 3 Zrotation Yrotation Xrotation
									End Site
									{
										OFFSET 0.51565 -0.00000 0.51565
									}
								}
							}
						}
					}
				}
				JOINT RightShoulder
				{
					OFFSET 0 0 0
					CHANNELS 3 Zrotation Yrotation Xrotation
					JOINT RightArm
					{
						OFFSET -3.06467 1.61290 -0.28813
						CHANNELS 3 Zrotation Yrotation Xrotation
						JOINT RightForeArm
						{
							OFFSET -5.23200 -0.00000 -0.00000
							CHANNELS 3 Zrotation Yrotation Xrotation
							JOINT RightHand
							{
								OFFSET -3.65641 -0.00000 0.00000
								CHANNELS 3 Zrotation Yrotation Xrotation
								JOINT RightFingerBase
								{
									OFFSET 0 0 0
									CHANNELS 3 Zrotation Yrotation Xrotation
									JOINT RightHandIndex1
									{
										OFFSET -0.65681 -0.00000 0.00000
										CHANNELS 3 Zrotation Yrotation Xrotation
										End Site
										{
											OFFSET -0.52953 -0.00000 0.00000
										}
									}
								}
								JOINT RThumb
								{
									OFFSET 0 0 0
									CHANNELS 3 Zrotation Yrotation Xrotation
									End Site
									{
										OFFSET -0.53762 -0.00000 0.53762
									}
								}
							}
						}
					}
				}
			}
		}
	}
}
MOTION
Frames: 15
Frame Time: .0083333
-0.6958 21.1586 -2.0444 4.2672 1.5875 4.8019 0.0000 0.0000 0.0000 -27.0111 -14.4112 -31.2353 8.2491 16.2995 53.4552 0.8865 -13.1138 -17.9198 0.0406 1.3010 3.5774 0.0000 0.0000 0.0000 11.3353 -1.9363 -39.9121 -18.8714 -19.9694 86.6987 -0.0357 -7.5216 -11.4738 -0.9114 6.0832 -17.0261 -4.7644 -0.4302 16.3491 -1.4884 -1.6267 -0.2567 1.4817 -0.5898 -9.3982 -3.4117 -2.0694 -20.2129 2.8062 -2.3447 13.4844 1.1959 -1.0216 7.5278 -0.0000 -0.0000 0.0000 -84.9848 11.7846 52.8216 124.4973 -54.9873 -89.3727 -0.0000 0.0000 -16.6795 19.9813 -14.9909 -5.3729 -7.1250 0.0000 -0.0000 -5.1277 14.1214 3.7370 -0.0000 -0.0000 0.0000 87.6018 -32.0171 34.9577 -68.4563 58.1715 -41.4571 0.0000 -0.0000 -7.8476 -25.3896 9.1093 -4.2971 7.1250 -0.0000 -0.0000 1.1026 -19.9165 0.6612
-0.7188 21.1512 -1.6116 4.5502 1.4897 5.0415 0.0000 0.0000 0.0000 -27.5700 -13.8879 -29.7450 8.2380 16.2916 53.4156 1.0928 -13.2040 -19.5490 0.0369 1.2391 3.4069 0.0000 0.0000 0.0000 10.6912 -0.8589 -42.2404 -18.7787 -19.9642 86.4270 -0.1041 -6.8371 -11.9400 -1.0220 6.4311 -18.0405 -5.0803 -0.4442 16.2695 -1.5341 -1.7083 -0.3277 1.6289 -0.6134 -9.4200 -3.4504 -2.0944 -20.3678 2.7855 -2.3570 13.4219 1.1929 -1.0304 7.5335 0.0000 -0.0000 0.0000 -85.4100 9.6132 53.1075 126.3507 -54.3653 -90.8849 -0.0000 0.0000 -16.2192 20.1679 -15.0698 -5.4549 -7.1250 0.0000 -0.0000 -5.0048 14.0184 3.6577 0.0000 -0.0000 0.0000 87.2270 -33.6894 34.7928 -70.0823 58.4466 -42.8408 0.0000 -0.0000 -8.6320 -25.3576 9.1679 -4.3182 7.1250 -0.0000 -0.0000 1.1282 -19.8547 0.6781
-0.7423 21.1532 -1.1769 4.8196 1.3735 5.3180 0.0000 0.0000 0.0000 -28.1120 -13.3306 -28.1455 8.1433 16.2236 53.0771 1.2942 -13.2414 -21.0317 0.0312 1.1407 3.1361 0.0000 0.0000 0.0000 10.0908 0.2103 -44.4240 -18.5085 -19.9466 85.6353 -0.1691 -6.1682 -12.3677 -1.1349 6.7658 -19.0234 -5.3976 -0.4865 16.1593 -1.5680 -1.8250 -0.4165 1.7971 -0.6529 -9.4406 -3.4200 -2.0609 -20.5077 2.7156 -2.3017 13.3658 1.1708 -1.0082 7.5351 0.0000 0.0000 0.0000 -85.9997 7.6716 53.1557 128.3656 -53.6338 -92.5151 -0.0000 0.0000 -15.4758 20.3661 -15.1605 -5.5451 -7.1250 0.0000 -0.0000 -4.8748 13.9015 3.5741 0.0000 0.0000 0.0000 86.7363 -35.3765 34.8575 -72.1528 58.7616 -44.6081 0.0000 -0.0000 -9.3980 -25.1949 9.2768 -4.3370 7.1250 -0.0000 -0.0000 1.2495 -19.7485 0.7540
-0.7661 21.1690 -0.7388 5.0613 1.2637 5.6342 0.0000 0.0000 0.0000 -28.6234 -12.7532 -26.4065 7.9551 16.0861 52.4007 1.4817 -13.2356 -22.3366 0.0246 1.0120 2.7817 0.0000 0.0000 0.0000 9.5645 1.2244 -46.4151 -18.0508 -19.9087 84.2925 -0.2311 -5.5072 -12.7629 -1.2566 7.1064 -20.0310 -5.6976 -0.5756 16.0070 -1.5862 -1.9961 -0.5231 1.9840 -0.7187 -9.4516 -3.3136 -1.9601 -20.6481 2.5978 -2.1689 13.3371 1.1303 -0.9500 7.5419 0.0000 -0.0000 0.0000 -86.7057 5.9980 52.9891 130.5281 -52.7803 -94.2470 -0.0000 0.0000 -14.6086 20.5637 -15.2818 -5.6469 -7.1250 0.0000 -0.0000 -4.7471 13.7518 3.4948 0.0000 -0.0000 0.0000 86.1222 -37.0446 35.1555 -74.5667 59.0806 -46.6756 0.0000 -0.0000 -10.0247 -24.9569 9.4516 -4.3703 7.1250 -0.0000 -0.0000 1.4276 -19.5768 0.8670
-0.7898 21.2004 -0.2964 5.2534 1.1747 5.9757 0.0000 0.0000 0.0000 -29.0856 -12.1521 -24.5065 7.6737 15.8739 51.3786 1.6478 -13.1470 -23.4318 0.0166 0.8318 2.2860 0.0000 0.0000 0.0000 9.1504 2.1449 -48.1571 -17.4035 -19.8376 82.3886 -0.2901 -4.8488 -13.1259 -1.3908 7.4613 -21.0896 -5.9514 -0.7204 15.8127 -1.5825 -2.2269 -0.6397 2.1806 -0.8149 -9.4439 -3.1331 -1.7901 -20.7938 2.4365 -1.9569 13.3425 1.0733 -0.8545 7.5577 -0.0000 -0.0000 0.0000 -87.4683 4.6028 52.6749 132.8217 -51.7921 -96.0616 -0.0000 0.0000 -13.8625 20.7646 -15.4035 -5.7508 -7.1250 0.0000 -0.0000 -4.6175 13.6009 3.4135 -0.0000 -0.0000 0.0000 85.3867 -38.6666 35.6679 -77.2462 59.3764 -48.9780 0.0000 -0.0000 -10.4284 -24.6830 9.6832 -4.4204 7.1250 -0.0000 -0.0000 1.6332 -19.3464 1.0003
-0.8130 21.2454 0.1505 5.3704 1.1058 6.3388 0.0000 0.0000 0.0000 -29.4718 -11.5213 -22.4710 7.3132 15.5900 50.0490 1.7832 -12.9322 -24.2775 0.0083 0.5867 1.6122 0.0000 0.0000 0.0000 8.8838 2.9631 -49.6284 -16.5808 -19.7174 79.9575 -0.3466 -4.1918 -13.4643 -1.5468 7.8503 -22.2604 -6.1255 -0.9211 15.5799 -1.5492 -2.5111 -0.7660 2.3742 -0.9400 -9.4197 -2.8992 -1.5587 -20.9431 2.2454 -1.6728 13.3833 1.0069 -0.7250 7.5839 0.0000 0.0000 0.0000 -88.2205 3.4808 52.2794 135.2033 -50.6685 -97.9186 -0.0000 0.0000 -13.4491 20.9546 -15.5199 -5.8506 -7.1250 0.0000 -0.0000 -4.4953 13.4564 3.3363 0.0000 0.0000 0.0000 84.5356 -40.2223 36.3664 -80.1087 59.6271 -51.4446 0.0000 -0.0000 -10.5892 -24.3951 9.9546 -4.4827 7.1250 -0.0000 -0.0000 1.8501 -19.0748 1.1445
-0.8351 21.3015 0.6030 5.3963 1.0240 6.6942 0.0000 0.0000 0.0000 -29.7674 -10.8200 -20.3265 6.8955 15.2433 48.4781 1.8778 -12.5861 -24.8328 0.0019 0.2810 0.7720 0.0000 0.0000 0.0000 8.7882 3.6983 -50.7850 -15.6020 -19.5298 77.0437 -0.3998 -3.5368 -13.7721 -1.7244 8.2667 -23.5270 -6.2006 -1.1589 15.3144 -1.4835 -2.8199 -0.8902 2.5496 -1.0820 -9.3726 -2.6291 -1.2792 -21.0827 2.0302 -1.3311 13.4503 0.9341 -0.5688 7.6165 0.0000 -0.0000 0.0000 -88.8956 2.6103 51.8861 137.6085 -49.4246 -99.7626 -0.0000 0.0000 -13.5099 21.1243 -15.6081 -5.9346 -7.1250 0.0000 -0.0000 -4.3858 13.3436 3.2650 0.0000 -0.0000 0.0000 83.5943 -41.6995 37.1984 -83.0890 59.8188 -54.0186 0.0000 -0.0000 -10.5459 -24.1177 10.2580 -4.5583 7.1250 -0.0000 -0.0000 2.0602 -18.7686 1.2886
-0.8561 21.3646 1.0597 5.3423 0.9398 7.0518 0.0000 0.0000 0.0000 -29.9765 -10.0698 -18.1400 6.4476 14.8485 46.7526 1.9216 -12.0976 -25.0524 0.0003 -0.1089 -0.2993 0.0000 0.0000 0.0000 8.8368 4.3456 -51.6320 -14.5060 -19.2604 73.7441 -0.4549 -2.7873 -14.0660 -1.8813 8.6144 -24.5963 -6.1800 -1.4269 15.0188 -1.3875 -3.1464 -1.0149 2.7043 -1.2373 -9.3078 -2.3478 -0.9694 -21.2034 1.8045 -0.9508 13.5312 0.8611 -0.3951 7.6515 -0.0000 -0.0000 0.0000 -89.4324 1.9562 51.5649 139.9689 -48.0883 -101.5377 -0.0000 0.0000 -14.1131 21.2630 -15.6598 -5.9963 -7.1250 0.0000 -0.0000 -4.2953 13.2727 3.2037 -0.0000 -0.0000 0.0000 82.5975 -43.0950 38.1045 -86.1482 59.9439 -56.6648 0.0000 -0.0000 -10.3917 -23.8450 10.5898 -4.6438 7.1250 -0.0000 -0.0000 2.2675 -18.4325 1.4354
-0.8762 21.4341 1.5209 5.2458 0.8502 7.4001 0.0000 0.0000 0.0000 -30.1361 -9.2752 -15.9465 5.9927 14.4213 44.9526 1.9064 -11.4821 -24.8941 0.0083 -0.5895 -1.6200 0.0000 0.0000 0.0000 8.9930 4.8944 -52.1842 -13.3146 -18.8928 70.1000 -0.5001 -2.0149 -14.2429 -2.0447 8.9586 -25.6658 -6.0944 -1.7108 14.6975 -1.2719 -3.4788 -1.1338 2.8407 -1.3994 -9.2221 -2.0774 -0.6457 -21.2972 1.5744 -0.5488 13.6205 0.7914 -0.2124 7.6865 -0.0000 0.0000 0.0000 -89.7864 1.4866 51.3674 142.2057 -46.7075 -103.1843 -0.0000 0.0000 -15.1660 21.3554 -15.6770 -6.0311 -7.1250 0.0000 -0.0000 -4.2342 13.2436 3.1604 -0.0000 0.0000 0.0000 81.5898 -44.3997 39.0218 -89.2212 59.9977 -59.3256 0.0000 -0.0000 -10.2199 -23.5755 10.9098 -4.7214 7.1250 -0.0000 -0.0000 2.4715 -18.1101 1.5823
-0.8959 21.5091 1.9863 5.1436 0.7461 7.7313 0.0000 0.0000 0.0000 -30.2739 -8.4251 -13.7936 5.5519 13.9796 43.1556 1.8274 -10.7929 -24.3239 0.0338 -1.1866 -3.2625 0.0000 0.0000 0.0000 9.2307 5.3379 -52.4600 -12.0636 -18.4174 66.1901 -0.5278 -1.2776 -14.2447 -2.2640 9.3955 -27.0406 -5.9819 -1.9913 14.3615 -1.1499 -3.8008 -1.2437 2.9626 -1.5589 -9.1194 -1.8379 -0.3268 -21.3581 1.3492 -0.1456 13.7105 0.7286 -0.0308 7.7184 0.0000 0.0000 0.0000 -89.9295 1.1784 51.3371 144.2625 -45.3316 -104.6645 -0.0000 0.0000 -16.5425 21.3807 -15.6710 -6.0367 -7.1250 0.0000 -0.0000 -4.2169 13.2468 3.1471 0.0000 0.0000 0.0000 80.6345 -45.6176 39.8786 -92.2627 59.9806 -61.9594 0.0000 -0.0000 -10.1006 -23.3176 11.2001 -4.7858 7.1250 -0.0000 -0.0000 2.6655 -17.8200 1.7238
-0.9159 21.5890 2.4551 5.0759 0.6219 8.0504 0.0000 0.0000 0.0000 -30.4172 -7.5285 -11.7351 5.1406 13.5404 41.4267 1.6825 -10.1088 -23.3013 0.0841 -1.8708 -5.1488 0.0000 0.0000 0.0000 9.4986 5.6818 -52.4806 -10.7847 -17.8281 62.0804 -0.5311 -0.5879 -13.9925 -2.5261 9.8852 -28.6059 -5.8833 -2.2529 14.0072 -1.0361 -4.1003 -1.3446 3.0742 -1.7086 -8.9973 -1.6326 -0.0274 -21.3883 1.1227 0.2411 13.7999 0.6689 0.1408 7.7472 0.0000 0.0000 0.0000 -89.8545 1.0136 51.4936 146.0805 -44.0250 -105.9429 -0.0000 0.0000 -18.0038 21.3126 -15.6678 -6.0145 -7.1250 0.0000 -0.0000 -4.2625 13.2585 3.1803 0.0000 0.0000 0.0000 79.7998 -46.7480 40.6022 -95.2146 59.8970 -64.5144 0.0000 -0.0000 -10.0760 -23.0716 11.4423 -4.8300 7.1250 -0.0000 -0.0000 2.8486 -17.5817 1.8574
-0.9371 21.6729 2.9272 5.0780 0.4827 8.3520 0.0000 0.0000 0.0000 -30.5836 -6.5917 -9.8111 4.7716 13.1218 39.8263 1.4763 -9.5178 -21.8033 0.1626 -2.5976 -7.1603 0.0000 0.0000 0.0000 9.7608 5.9202 -52.2711 -9.5142 -17.1275 57.8520 -0.5051 0.0007 -13.4286 -2.8300 10.4146 -30.3302 -5.8380 -2.4868 13.6421 -0.9430 -4.3735 -1.4329 3.1839 -1.8449 -8.8551 -1.4682 0.2434 -21.3913 0.8986 0.6009 13.8861 0.6133 0.2973 7.7724 0.0000 0.0000 0.0000 -89.5733 0.9750 51.8371 147.6208 -42.8474 -107.0020 -0.0000 0.0000 -19.3001 21.1323 -15.6801 -5.9636 -7.1250 0.0000 -0.0000 -4.3843 13.2666 3.2710 0.0000 0.0000 0.0000 79.1448 -47.7919 41.1366 -98.0195 59.7556 -66.9394 0.0000 -0.0000 -10.1437 -22.8619 11.6267 -4.8570 7.1250 -0.0000 -0.0000 3.0032 -17.4029 1.9702
-0.9606 21.7595 3.4018 5.1737 0.3428 8.6299 0.0000 0.0000 0.0000 -30.7751 -5.6436 -8.0792 4.4691 12.7598 38.4757 1.2264 -9.0736 -19.8740 0.2704 -3.3448 -9.2402 0.0000 0.0000 0.0000 9.9861 6.0515 -51.8756 -8.3044 -16.3387 53.6520 -0.4538 0.4484 -12.5781 -3.1546 10.9412 -32.0817 -5.8706 -2.6881 13.2766 -0.8807 -4.6188 -1.5093 3.2950 -1.9659 -8.6985 -1.3427 0.4769 -21.3657 0.6738 0.9218 13.9718 0.5587 0.4330 7.7944 -0.0000 -0.0000 0.0000 -89.1137 1.0716 52.3605 148.8649 -41.8467 -107.8401 -0.0000 0.0000 -20.2204 20.8259 -15.7090 -5.8801 -7.1250 0.0000 -0.0000 -4.5917 13.2719 3.4262 -0.0000 -0.0000 0.0000 78.7308 -48.7580 41.4255 -100.6414 59.5678 -69.2024 0.0000 -0.0000 -10.2723 -22.6961 11.7471 -4.8669 7.1250 -0.0000 -0.0000 3.1242 -17.2892 2.0576
-0.9872 21.8465 3.8784 5.3683 0.2131 8.8939 0.0000 0.0000 0.0000 -30.9775 -4.7029 -6.5558 4.2232 12.4516 37.3490 0.9409 -8.7982 -17.4660 0.3983 -4.0520 -11.2231 0.0000 0.0000 0.0000 10.1582 6.0928 -51.3292 -7.1821 -15.4833 49.5597 -0.3845 0.7146 -11.4848 -3.4743 11.4259 -33.7302 -5.9932 -2.8570 12.9097 -0.8509 -4.8377 -1.5788 3.4134 -2.0716 -8.5311 -1.2506 0.6704 -21.3235 0.4457 1.1996 14.0666 0.5030 0.5458 7.8182 -0.0000 -0.0000 0.0000 -88.5190 1.2964 53.0340 149.7988 -41.0653 -108.4584 -0.0000 0.0000 -20.6075 20.3974 -15.7684 -5.7701 -7.1250 0.0000 -0.0000 -4.8825 13.2587 3.6461 -0.0000 -0.0000 0.0000 78.5862 -49.6441 41.4464 -103.0388 59.3478 -71.2672 0.0000 -0.0000 -10.4248 -22.5847 11.8185 -4.8693 7.1250 -0.0000 -0.0000 3.2049 -17.2231 2.1156
-1.0184 21.9115 4.3552 5.6642 0.0955 9.1518 0.0000 0.0000 0.0000 -31.1869 -3.8125 -5.2869 4.0463 12.2217 36.5210 0.6409 -8.6559 -14.6076 0.5287 -4.6597 -12.9405 0.0000 0.0000 0.0000 10.2405 6.0877 -50.7634 -6.1952 -14.6149 45.7602 -0.3079 0.7626 -10.2403 -3.7520 11.8228 -35.1081 -6.2120 -2.9913 12.5370 -0.8567 -5.0270 -1.6455 3.5387 -2.1602 -8.3547 -1.1846 0.8259 -21.2737 0.2172 1.4341 14.1807 0.4459 0.6364 7.8484 0.0000 -0.0000 0.0000 -87.8295 1.6531 53.8267 150.4183 -40.5322 -108.8632 -0.0000 0.0000 -20.3912 19.9051 -15.8677 -5.6540 -7.1250 0.0000 -0.0000 -5.2177 13.2106 3.9038 0.0000 -0.0000 0.0000 78.7352 -50.4478 41.1790 -105.1852 59.1105 -73.1115 0.0000 -0.0000 -10.5574 -22.5296 11.8523 -4.8698 7.1250 -0.0000 -0.0000 3.2448 -17.1921 2.1442
